<svg xmlns="http://www.w3.org/2000/svg" width="16.827" height="16.827" viewBox="0 0 16.827 16.827">
  <g id="Group_533" data-name="Group 533" transform="translate(0 0)">
    <g id="_01-Calendar_copy" data-name="01-Calendar copy" transform="translate(0 0)">
      <path id="Path_840" data-name="Path 840" d="M10.414,2a8.414,8.414,0,1,0,8.414,8.414A8.414,8.414,0,0,0,10.414,2Zm0,16.266a7.853,7.853,0,1,1,7.853-7.853,7.853,7.853,0,0,1-7.853,7.853Zm0-15.145a7.292,7.292,0,1,0,7.292,7.292,7.292,7.292,0,0,0-7.292-7.292Zm0,14.023a6.731,6.731,0,1,1,6.731-6.731,6.731,6.731,0,0,1-6.731,6.731Zm4.94-7.233L12.829,7.948a.281.281,0,0,0-.172-.059H11.536V7.329a.28.28,0,0,0-.28-.28H5.365a.28.28,0,0,0-.28.28V12.1a.842.842,0,0,0,.841.841h.881a1.116,1.116,0,0,0,2.164,0h3.165a1.116,1.116,0,0,0,2.164,0h.32a.842.842,0,0,0,.841-.841V10.133a.281.281,0,0,0-.108-.222ZM12.938,8.743l1.426,1.109H12.938ZM5.646,7.609h5.329v3.085H5.646ZM7.89,13.218a.561.561,0,1,1,.561-.561A.561.561,0,0,1,7.89,13.218Zm1.082-.841a1.116,1.116,0,0,0-2.164,0H5.926a.281.281,0,0,1-.28-.28v-.841h5.329v1.122Zm4.247.841a.561.561,0,1,1,.561-.561.561.561,0,0,1-.561.561Zm1.4-.841H14.3a1.116,1.116,0,0,0-2.164,0h-.6V8.45h.841v1.683a.28.28,0,0,0,.28.28H14.9v.841h-.28a.28.28,0,0,0,0,.561h.28v.28a.281.281,0,0,1-.28.28Z" transform="translate(-2 -2)" fill="#fff"/>
    </g>
  </g>
</svg>
