<svg id="noun-delivery-truck-location-5120273" xmlns="http://www.w3.org/2000/svg" width="17.343" height="14.731" viewBox="0 0 17.343 14.731">
  <path id="Path_830" data-name="Path 830" d="M20.961,14.258l-.178-.182h0L19.3,12.6a1.3,1.3,0,0,0-.919-.382H14.406v-1.3a1.3,1.3,0,0,0-1.3-1.3h-.546a3.469,3.469,0,0,0-6.712,0H5.3a1.3,1.3,0,0,0-1.3,1.3v8.671a.434.434,0,0,0,.434.434H6.385a1.734,1.734,0,0,0,3.469,0H15.49a1.734,1.734,0,0,0,3.469,0h1.951a.434.434,0,0,0,.434-.434V15.177A1.3,1.3,0,0,0,20.961,14.258Zm-.611.611a.434.434,0,0,1,.126.308v.941h-2.6v-1.3H20.3ZM9.2,7.88a2.6,2.6,0,0,1,2.6,2.6c0,1.106-1.648,3.6-2.6,4.912-.954-1.3-2.6-3.807-2.6-4.912a2.6,2.6,0,0,1,2.6-2.6ZM8.119,20.887a.867.867,0,1,1,.867-.867A.867.867,0,0,1,8.119,20.887ZM9.61,19.153a1.734,1.734,0,0,0-2.983,0H4.867V10.915a.434.434,0,0,1,.434-.434h.434c0,1.773,2.805,5.485,3.126,5.9a.434.434,0,0,0,.685,0c.321-.416,3.126-4.128,3.126-5.9H13.1a.434.434,0,0,1,.434.434v8.238Zm7.613,1.734a.867.867,0,1,1,.867-.867A.867.867,0,0,1,17.224,20.887Zm1.491-1.734a1.734,1.734,0,0,0-2.983,0H14.406v-6.07h3.976a.455.455,0,0,1,.308.126l.741.741h-1.99a.434.434,0,0,0-.434.434v2.168a.434.434,0,0,0,.434.434h3.035v2.168Z" transform="translate(-4 -7.023)" fill="#fff"/>
  <path id="Path_831" data-name="Path 831" d="M13.734,14.469A1.734,1.734,0,1,0,12,12.734,1.734,1.734,0,0,0,13.734,14.469Zm0-2.6a.867.867,0,1,1-.867.867A.867.867,0,0,1,13.734,11.867Z" transform="translate(-8.531 -9.276)" fill="#fff"/>
</svg>
