<svg id="noun-assign-6849551" xmlns="http://www.w3.org/2000/svg" width="16.187" height="15.509" viewBox="0 0 16.187 15.509">
  <path id="Path_4" data-name="Path 4" d="M23.625,16.383a2.829,2.829,0,1,0-4.207-.013,4.683,4.683,0,0,0-1.335,1.015,4.667,4.667,0,0,0-1.325-1,2.829,2.829,0,1,0-4.2,0A4.646,4.646,0,0,0,10,20.52v.736h1.472V20.52a3.188,3.188,0,0,1,6.377,0v.736H19.32V20.52a4.631,4.631,0,0,0-.389-1.853v0a3.19,3.19,0,0,1,5.784,1.853v.736h1.471V20.52a4.646,4.646,0,0,0-2.562-4.137ZM13.3,14.5a1.357,1.357,0,1,1,1.358,1.357A1.359,1.359,0,0,1,13.3,14.5Zm6.867,0a1.357,1.357,0,1,1,1.358,1.357A1.359,1.359,0,0,1,20.17,14.5ZM23,21.18l3,3-3,3-1.04-1.04,1.227-1.227H10.491V23.447H23.185l-1.227-1.226L23,21.181Z" transform="translate(-10 -11.676)" fill="#fff"/>
</svg>
