<svg id="noun-shipped-4929498" xmlns="http://www.w3.org/2000/svg" width="19.8" height="12.128" viewBox="0 0 19.8 12.128">
  <path id="Path_834" data-name="Path 834" d="M231.91,372.281a.379.379,0,0,1-.27-.112l-1.816-1.816a.381.381,0,1,1,.539-.538l1.547,1.547,3.171-3.171a.381.381,0,1,1,.539.538l-3.439,3.439A.379.379,0,0,1,231.91,372.281Z" transform="translate(-226.238 -365.155)" fill="#fff"/>
  <path id="Path_835" data-name="Path 835" d="M153.211,604.511a1.831,1.831,0,1,1,1.831-1.83A1.83,1.83,0,0,1,153.211,604.511Zm0-2.9a1.069,1.069,0,1,0,1.069,1.069A1.069,1.069,0,0,0,153.211,601.612Z" transform="translate(-149.777 -592.386)" fill="#fff"/>
  <path id="Path_836" data-name="Path 836" d="M681.35,604.641a1.831,1.831,0,1,1,1.83-1.83A1.83,1.83,0,0,1,681.35,604.641Zm0-2.9a1.069,1.069,0,1,0,1.069,1.069,1.069,1.069,0,0,0-1.069-1.069Z" transform="translate(-665.348 -592.513)" fill="#fff"/>
  <path id="Path_837" data-name="Path 837" d="M96.586,255.886h-7.7a.381.381,0,0,1-.381-.389v-.024a1.069,1.069,0,0,0-2.138,0v.024a.381.381,0,0,1-.381.389h-1.6a.381.381,0,0,1-.381-.381v-9.945a.381.381,0,0,1,.381-.381H96.586a.381.381,0,0,1,.381.381v9.944A.381.381,0,0,1,96.586,255.886Zm-7.355-.762h6.974v-9.183H84.762v9.183h.876a1.831,1.831,0,0,1,3.593,0Z" transform="translate(-84 -245.18)" fill="#fff"/>
  <path id="Path_838" data-name="Path 838" d="M604.084,336h-1.968a.381.381,0,0,1-.381-.389v-.024a1.069,1.069,0,1,0-2.138,0v.024a.381.381,0,0,1-.381.389h-1.966a.381.381,0,0,1-.381-.381v-7.991a.381.381,0,0,1,.381-.381h3.432a3.794,3.794,0,0,1,3.782,3.8v4.575A.381.381,0,0,1,604.084,336Zm-1.62-.762H603.7v-4.194a3.032,3.032,0,0,0-3.02-3.036h-3.051v7.23h1.237a1.831,1.831,0,0,1,3.593,0Z" transform="translate(-584.665 -325.297)" fill="#fff"/>
  <path id="Path_839" data-name="Path 839" d="M651.829,380.326h-4.448a.381.381,0,0,1-.381-.381v-2.225a.381.381,0,0,1,.381-.381h2.24a2.6,2.6,0,0,1,2.59,2.605.381.381,0,0,1-.382.381Zm-4.069-.762h3.649a1.835,1.835,0,0,0-1.789-1.463h-1.858Z" transform="translate(-633.602 -374.195)" fill="#fff"/>
</svg>
