<svg id="noun-return-7439038" xmlns="http://www.w3.org/2000/svg" width="18.148" height="12.886" viewBox="0 0 18.148 12.886">
  <path id="Path_829" data-name="Path 829" d="M7.283,29.848a.652.652,0,0,1-.406-.143L3.715,27.189a.653.653,0,0,1,0-1.022l3.162-2.516a.654.654,0,0,1,1.06.512v.945h8.034a2.5,2.5,0,0,0,0-5l-8.4,0a.362.362,0,0,1-.363-.363V17.325a.362.362,0,0,1,.363-.363h8.4a5.644,5.644,0,0,1,0,11.288H7.937v.945a.655.655,0,0,1-.654.654Zm-3.045-3.17,2.973,2.366V27.887a.362.362,0,0,1,.363-.363h8.4a4.918,4.918,0,1,0,0-9.836H7.938v1.692h8.034a3.226,3.226,0,0,1,0,6.452h-8.4a.362.362,0,0,1-.363-.363V24.312L4.239,26.678Z" transform="translate(-3.468 -16.963)" fill="#fff"/>
</svg>
